<mxfile host="app.diagrams.net" agent="Mozilla/5.0 (Windows NT 10.0; Win64; x64) AppleWebKit/537.36 (KHTML, like Gecko) Chrome/138.0.0.0 Safari/537.36" version="27.2.0">
  <diagram name="Trang-1" id="qR2clKj8hGf9dE3mN_oP">
    <mxGraphModel dx="1138" dy="408" grid="1" gridSize="10" guides="1" tooltips="1" connect="1" arrows="1" fold="1" page="1" pageScale="1" pageWidth="1169" pageHeight="1600" math="0" shadow="0">
      <root>
        <mxCell id="0" />
        <mxCell id="1" parent="0" />
        <mxCell id="2" value="Thành viên Dự án" style="swimlane;fontStyle=1;align=center;verticalAlign=top;childLayout=stackLayout;horizontal=1;startSize=26;horizontalStack=0;resizeParent=1;resizeParentMax=0;resizeLast=0;collapsible=1;marginBottom=0;whiteSpace=wrap;html=1;fontFamily=Arial;fontSize=12;" parent="1" vertex="1">
          <mxGeometry x="40" y="40" width="280" height="1520" as="geometry" />
        </mxCell>
        <mxCell id="3" value="" style="ellipse;html=1;shape=startState;fillColor=#000000;strokeColor=#000000;" parent="2" vertex="1">
          <mxGeometry x="125" y="60" width="30" height="30" as="geometry" />
        </mxCell>
        <mxCell id="4" value="Truy cập bảng Kanban của dự án" style="rounded=1;whiteSpace=wrap;html=1;arcSize=40;fillColor=#FFE6CC;strokeColor=#D79B00;verticalAlign=middle;fontFamily=Arial;fontSize=12;" parent="2" vertex="1">
          <mxGeometry x="70" y="130" width="180" height="60" as="geometry" />
        </mxCell>
        <mxCell id="5" value="Chọn một thao tác" style="rhombus;whiteSpace=wrap;html=1;fillColor=#FFE6CC;strokeColor=#D79B00;verticalAlign=middle;fontFamily=Arial;fontSize=12;" parent="2" vertex="1">
          <mxGeometry x="65" y="310" width="190" height="80" as="geometry" />
        </mxCell>
        <mxCell id="6" value="Nhập thông tin &amp;amp; Xác nhận" style="rounded=1;whiteSpace=wrap;html=1;arcSize=40;fillColor=#FFE6CC;strokeColor=#D79B00;verticalAlign=middle;fontFamily=Arial;fontSize=12;" parent="2" vertex="1">
          <mxGeometry x="70" y="860" width="180" height="60" as="geometry" />
        </mxCell>
        <mxCell id="8" value="" style="ellipse;html=1;shape=endState;fillColor=#000000;strokeColor=#000000;" parent="2" vertex="1">
          <mxGeometry x="125" y="1450" width="30" height="30" as="geometry" />
        </mxCell>
        <mxCell id="9" value="Hệ thống Bảng Kanban" style="swimlane;fontStyle=1;align=center;verticalAlign=top;childLayout=stackLayout;horizontal=1;startSize=26;horizontalStack=0;resizeParent=1;resizeParentMax=0;resizeLast=0;collapsible=1;marginBottom=0;whiteSpace=wrap;html=1;fontFamily=Arial;fontSize=12;" parent="1" vertex="1">
          <mxGeometry x="320" y="40" width="600" height="1520" as="geometry" />
        </mxCell>
        <mxCell id="10" value="Hiển thị bảng Kanban" style="rounded=1;whiteSpace=wrap;html=1;arcSize=40;fillColor=#D9E8FB;strokeColor=#6C8EBF;verticalAlign=middle;fontFamily=Arial;fontSize=12;" parent="9" vertex="1">
          <mxGeometry x="230" y="220" width="180" height="60" as="geometry" />
        </mxCell>
        <mxCell id="11" value="Hiển thị form/giao diện tương ứng" style="rounded=1;whiteSpace=wrap;html=1;arcSize=40;fillColor=#D9E8FB;strokeColor=#6C8EBF;verticalAlign=middle;fontFamily=Arial;fontSize=12;" parent="9" vertex="1">
          <mxGeometry x="230" y="730" width="180" height="60" as="geometry" />
        </mxCell>
        <mxCell id="12" value="Kiểm tra thông tin" style="rhombus;whiteSpace=wrap;html=1;fillColor=#D9E8FB;strokeColor=#6C8EBF;verticalAlign=middle;fontFamily=Arial;fontSize=12;" parent="9" vertex="1">
          <mxGeometry x="225" y="850" width="190" height="80" as="geometry" />
        </mxCell>
        <mxCell id="13" value="Xử lý nghiệp vụ (Lưu CSDL, cập nhật trạng thái)" style="rounded=1;whiteSpace=wrap;html=1;arcSize=40;fillColor=#D9E8FB;strokeColor=#6C8EBF;verticalAlign=middle;fontFamily=Arial;fontSize=12;" parent="9" vertex="1">
          <mxGeometry x="230" y="990" width="180" height="70" as="geometry" />
        </mxCell>
        <mxCell id="14" value="Làm mới giao diện &amp;amp; Hiển thị kết quả" style="rounded=1;whiteSpace=wrap;html=1;arcSize=40;fillColor=#D9E8FB;strokeColor=#6C8EBF;verticalAlign=middle;fontFamily=Arial;fontSize=12;" parent="9" vertex="1">
          <mxGeometry x="230" y="1120" width="180" height="70" as="geometry" />
        </mxCell>
        <mxCell id="16" value="Hiển thị thông báo lỗi" style="rounded=1;whiteSpace=wrap;html=1;arcSize=40;fillColor=#F8CECC;strokeColor=#B85450;verticalAlign=middle;fontFamily=Arial;fontSize=12;" parent="9" vertex="1">
          <mxGeometry x="430" y="860" width="180" height="60" as="geometry" />
        </mxCell>
        <mxCell id="17" value="Hiển thị chế độ xem Gantt" style="rounded=1;whiteSpace=wrap;html=1;arcSize=40;fillColor=#D9E8FB;strokeColor=#6C8EBF;verticalAlign=middle;fontFamily=Arial;fontSize=12;" parent="9" vertex="1">
          <mxGeometry x="430" y="320" width="180" height="60" as="geometry" />
        </mxCell>
        <mxCell id="18" value="Kiểm tra quyền hạn" style="rhombus;whiteSpace=wrap;html=1;fillColor=#D9E8FB;strokeColor=#6C8EBF;verticalAlign=middle;fontFamily=Arial;fontSize=12;" parent="9" vertex="1">
          <mxGeometry x="225" y="520" width="190" height="80" as="geometry" />
        </mxCell>
        <mxCell id="19" value="Hiển thị thông báo &#39;Không có quyền&#39;" style="rounded=1;whiteSpace=wrap;html=1;arcSize=40;fillColor=#F8CECC;strokeColor=#B85450;verticalAlign=middle;fontFamily=Arial;fontSize=12;" parent="9" vertex="1">
          <mxGeometry x="430" y="530" width="180" height="60" as="geometry" />
        </mxCell>
        <mxCell id="21" value="" style="edgeStyle=orthogonalEdgeStyle;endArrow=classic;html=1;rounded=0;" parent="1" source="3" target="4" edge="1">
          <mxGeometry width="50" height="50" relative="1" as="geometry">
            <mxPoint x="140" y="90" as="sourcePoint" />
            <mxPoint x="140" y="130" as="targetPoint" />
          </mxGeometry>
        </mxCell>
        <mxCell id="22" value="" style="edgeStyle=orthogonalEdgeStyle;endArrow=classic;html=1;rounded=0;" parent="1" source="4" target="10" edge="1">
          <mxGeometry width="50" height="50" relative="1" as="geometry">
            <mxPoint x="160" y="190" as="sourcePoint" />
            <mxPoint x="520" y="250" as="targetPoint" />
          </mxGeometry>
        </mxCell>
        <mxCell id="23" value="" style="edgeStyle=orthogonalEdgeStyle;endArrow=classic;html=1;rounded=0;" parent="1" source="10" target="5" edge="1">
          <mxGeometry width="50" height="50" relative="1" as="geometry">
            <mxPoint x="520" y="280" as="sourcePoint" />
            <mxPoint x="160" y="350" as="targetPoint" />
          </mxGeometry>
        </mxCell>
        <mxCell id="24" value="Tạo/Sửa/Xóa/Di chuyển..." style="edgeStyle=orthogonalEdgeStyle;endArrow=classic;html=1;rounded=0;fontSize=11;labelBackgroundColor=#FFFFFF;" parent="1" source="5" target="18" edge="1">
          <mxGeometry width="50" height="50" relative="1" as="geometry">
            <mxPoint x="160" y="390" as="sourcePoint" />
            <mxPoint x="520" y="560" as="targetPoint" />
          </mxGeometry>
        </mxCell>
        <mxCell id="25" value="" style="edgeStyle=orthogonalEdgeStyle;endArrow=classic;html=1;rounded=0;" parent="1" source="11" target="6" edge="1">
          <mxGeometry width="50" height="50" relative="1" as="geometry">
            <mxPoint x="520" y="790" as="sourcePoint" />
            <mxPoint x="160" y="890" as="targetPoint" />
          </mxGeometry>
        </mxCell>
        <mxCell id="26" value="" style="edgeStyle=orthogonalEdgeStyle;endArrow=classic;html=1;rounded=0;" parent="1" source="6" target="12" edge="1">
          <mxGeometry width="50" height="50" relative="1" as="geometry">
            <mxPoint x="160" y="920" as="sourcePoint" />
            <mxPoint x="520" y="890" as="targetPoint" />
          </mxGeometry>
        </mxCell>
        <mxCell id="27" value="Hợp lệ" style="edgeStyle=orthogonalEdgeStyle;endArrow=classic;html=1;rounded=0;fontSize=11;labelBackgroundColor=#FFFFFF;" parent="1" source="12" target="13" edge="1">
          <mxGeometry width="50" height="50" relative="1" as="geometry">
            <mxPoint x="520" y="930" as="sourcePoint" />
            <mxPoint x="520" y="990" as="targetPoint" />
          </mxGeometry>
        </mxCell>
        <mxCell id="28" value="Không hợp lệ" style="edgeStyle=orthogonalEdgeStyle;endArrow=classic;html=1;rounded=0;fontSize=11;labelBackgroundColor=#FFFFFF;" parent="1" source="12" target="16" edge="1">
          <mxGeometry width="50" height="50" relative="1" as="geometry">
            <mxPoint x="415" y="890" as="sourcePoint" />
            <mxPoint x="430" y="890" as="targetPoint" />
          </mxGeometry>
        </mxCell>
        <mxCell id="29" value="" style="edgeStyle=orthogonalEdgeStyle;endArrow=classic;html=1;rounded=0;entryX=0.5;entryY=1;entryDx=0;entryDy=0;" parent="1" source="16" target="6" edge="1">
          <mxGeometry width="50" height="50" relative="1" as="geometry">
            <mxPoint x="520" y="920" as="sourcePoint" />
            <mxPoint x="160" y="920" as="targetPoint" />
            <Array as="points">
              <mxPoint x="840" y="870" />
              <mxPoint x="520" y="870" />
              <mxPoint x="520" y="990" />
              <mxPoint x="200" y="990" />
            </Array>
          </mxGeometry>
        </mxCell>
        <mxCell id="30" value="" style="edgeStyle=orthogonalEdgeStyle;endArrow=classic;html=1;rounded=0;" parent="1" source="13" target="14" edge="1">
          <mxGeometry width="50" height="50" relative="1" as="geometry">
            <mxPoint x="520" y="1060" as="sourcePoint" />
            <mxPoint x="520" y="1120" as="targetPoint" />
          </mxGeometry>
        </mxCell>
        <mxCell id="33" value="" style="edgeStyle=orthogonalEdgeStyle;endArrow=classic;html=1;rounded=0;entryX=0.5;entryY=0;entryDx=0;entryDy=0;" parent="1" source="14" target="10" edge="1">
          <mxGeometry width="50" height="50" relative="1" as="geometry">
            <mxPoint x="520" y="1190" as="sourcePoint" />
            <mxPoint x="520" y="280" as="targetPoint" />
            <Array as="points">
              <mxPoint x="740" y="1230" />
              <mxPoint x="740" y="260" />
            </Array>
          </mxGeometry>
        </mxCell>
        <mxCell id="34" value="Xem Gantt" style="edgeStyle=orthogonalEdgeStyle;endArrow=classic;html=1;rounded=0;fontSize=11;labelBackgroundColor=#FFFFFF;" parent="1" source="5" target="17" edge="1">
          <mxGeometry width="50" height="50" relative="1" as="geometry">
            <mxPoint x="255" y="350" as="sourcePoint" />
            <mxPoint x="430" y="350" as="targetPoint" />
            <Array as="points">
              <mxPoint x="660" y="360" />
              <mxPoint x="660" y="360" />
            </Array>
          </mxGeometry>
        </mxCell>
        <mxCell id="35" value="" style="edgeStyle=orthogonalEdgeStyle;endArrow=classic;html=1;rounded=0;entryX=0.5;entryY=1;entryDx=0;entryDy=0;" parent="1" source="17" target="5" edge="1">
          <mxGeometry width="50" height="50" relative="1" as="geometry">
            <mxPoint x="520" y="380" as="sourcePoint" />
            <mxPoint x="160" y="390" as="targetPoint" />
            <Array as="points">
              <mxPoint x="840" y="430" />
            </Array>
          </mxGeometry>
        </mxCell>
        <mxCell id="36" value="Có quyền" style="edgeStyle=orthogonalEdgeStyle;endArrow=classic;html=1;rounded=0;fontSize=11;labelBackgroundColor=#FFFFFF;" parent="1" source="18" target="11" edge="1">
          <mxGeometry width="50" height="50" relative="1" as="geometry">
            <mxPoint x="520" y="600" as="sourcePoint" />
            <mxPoint x="520" y="730" as="targetPoint" />
          </mxGeometry>
        </mxCell>
        <mxCell id="37" value="Không có quyền" style="edgeStyle=orthogonalEdgeStyle;endArrow=classic;html=1;rounded=0;fontSize=11;labelBackgroundColor=#FFFFFF;" parent="1" source="18" target="19" edge="1">
          <mxGeometry width="50" height="50" relative="1" as="geometry">
            <mxPoint x="415" y="560" as="sourcePoint" />
            <mxPoint x="430" y="560" as="targetPoint" />
          </mxGeometry>
        </mxCell>
        <mxCell id="39" value="" style="edgeStyle=orthogonalEdgeStyle;endArrow=classic;html=1;rounded=0;entryX=0.5;entryY=1;entryDx=0;entryDy=0;" parent="1" source="19" target="5" edge="1">
          <mxGeometry width="50" height="50" relative="1" as="geometry">
            <mxPoint x="520" y="590" as="sourcePoint" />
            <mxPoint x="160" y="390" as="targetPoint" />
            <Array as="points">
              <mxPoint x="840" y="470" />
              <mxPoint x="200" y="470" />
            </Array>
          </mxGeometry>
        </mxCell>
        <mxCell id="40" value="Kết thúc" style="edgeStyle=orthogonalEdgeStyle;endArrow=classic;html=1;rounded=0;fontSize=11;labelBackgroundColor=#FFFFFF;" parent="1" source="5" target="8" edge="1">
          <mxGeometry width="50" height="50" relative="1" as="geometry">
            <mxPoint x="160" y="390" as="sourcePoint" />
            <mxPoint x="140" y="1450" as="targetPoint" />
            <Array as="points">
              <mxPoint x="90" y="390" />
              <mxPoint x="90" y="1465" />
              <mxPoint x="180" y="1465" />
            </Array>
          </mxGeometry>
        </mxCell>
      </root>
    </mxGraphModel>
  </diagram>
</mxfile>
